<svg viewBox="0 0 640 640" xmlns="http://www.w3.org/2000/svg"><g stroke="#000" stroke-width="0" class="layer"><path d="M0 0h320v320H0z"/><path fill="#fff" d="M320 0h320v320H320z"/><path d="M320 320h320v320H320z"/><path fill="#fff" d="M0 320h320v320H0z"/><g fill="#fff" stroke-dasharray="null" stroke-linecap="null" stroke-linejoin="null"><path d="M142 60h35v200h-35z"/><path d="M60 142h200v36H60z"/></g><g stroke-dasharray="null" stroke-linecap="null" stroke-linejoin="null"><path d="M227.41 380l29.297 29.297-167.41 167.41L60 547.41z"/><path d="M90.134 380l167.41 167.41-30.133 30.134L60 410.134z"/></g><path stroke-dasharray="null" stroke-linecap="null" stroke-linejoin="null" d="M380 142h200v36H380z"/><path fill="#fff" stroke-dasharray="null" stroke-linecap="null" stroke-linejoin="null" d="M380 462h200v36H380zm82-82h36v36h-36zm0 164h36v36h-36z"/></g></svg>